# xmcd
#
# Track frame offsets: 
#        150
#        18327
#        36704
#        55135
#        72789
#        88596
#        106449
#        123550
#        144568
#        156875
#        173395
#        185684
#        203493
#        221237
#        239511
#        253233
#        278763
#        297960
#
# Disc length: 4260 seconds
#
# Revision: 0
# Processed by: cddbd v1.5.2PL0 Copyright (c) Steve Scherf et al.
# Submitted via: ExactAudioCopyFreeDBPlugin 1.0
#
DISCID=1310a212
DTITLE=Various Artist - Yesterday Once More
DYEAR=1900
DGENRE=Country
TTITLE0=The Carpenters - Yesterday Once More
TTITLE1=Bee Gees - How Deep Is Your love
TTITLE2=Rod Stewart - Have I Told You Lately
TTITLE3=Barbra Streisand - Woman In Love
TTITLE4=John Lennon - Woman
TTITLE5=Air Supply - Lost In Love
TTITLE6=Sherbet - If You Walked Away
TTITLE7=Bertie Higgins - Casablanca
TTITLE8=Cliff Richard - Evergreen Tree
TTITLE9=Grease - Summer Nights
TTITLE10=The Wynners - I'll Never Dance Again
TTITLE11=Bee Gees - Emotion
TTITLE12=Niall Horan - Slow Hand
TTITLE13=Lauren Wood - Fallen
TTITLE14=Cliff Richard - Daddy's Home
TTITLE15=Santa Esmeralda - You're My Everything
TTITLE16=Captain, Tennille - Do That To Me One More Time
TTITLE17=Roberta Flack - Killing Me Softly With His Song
EXTD=
EXTT0=
EXTT1=
EXTT2=
EXTT3=
EXTT4=
EXTT5=
EXTT6=
EXTT7=
EXTT8=
EXTT9=
EXTT10=
EXTT11=
EXTT12=
EXTT13=
EXTT14=
EXTT15=
EXTT16=
EXTT17=
PLAYORDER=
